<?xml version="1.0" encoding="utf-8"?>
<!-- Generator: Adobe Illustrator 23.0.1, SVG Export Plug-In . SVG Version: 6.00 Build 0)  -->
<svg version="1.1" id="Layer_1" xmlns="http://www.w3.org/2000/svg" xmlns:xlink="http://www.w3.org/1999/xlink" x="0px" y="0px"
	 viewBox="0 0 153.4 71.8" style="enable-background:new 0 0 153.4 71.8;" xml:space="preserve">
<style type="text/css">
	.st0{fill-rule:evenodd;clip-rule:evenodd;fill:#ffffff;}
</style>
<path id="planet-2" class="st0" d="M43.1,46.8c-1.1-0.3-2.1-0.7-3.2-1.1c-1.6-0.5-3.2-1.1-4.8-1.6c-0.7-0.2-1.4-0.4-2.1-0.7
	c-0.8-0.3-1.5-0.6-2.3-0.9c-1.6-0.6-3.1-1.3-4.6-2s-2.9-1.4-4.3-2.2c-2.8-1.5-5.5-3.1-8.2-4.8c-0.7-0.4-1.3-0.9-2-1.3
	s-1.2-0.9-1.9-1.3S8.4,30,7.8,29.5s-1.3-1-1.9-1.5l0,0c-1.1-0.9-2.3-1.7-3.3-2.7C2,24.7,1.5,24.1,1,23.4c-0.4-0.7-0.7-1.4-0.9-2.2
	c-0.1-0.5-0.2-1-0.1-1.5c0.1-0.5,0.3-1,0.6-1.5c0.6-0.8,1.4-1.4,2.3-1.7c0.7-0.3,1.5-0.6,2.2-0.8c1.5-0.3,3-0.6,4.5-0.7
	c1.5-0.2,3.1-0.3,4.6-0.4l4.6-0.3c1.6-0.1,3.2-0.1,4.9-0.2c0.8,0,1.5-0.1,2.3-0.1h2.6c1.5,0,3.1,0,4.6,0.1c3.1,0.1,6.2,0.1,9.3,0.1
	c1.6,0,3.3,0.1,4.9,0.2h1.2l0.3-0.3c1.4-1.8,3-3.5,4.7-5L53.7,9c0.6-0.6,1.3-1.1,2-1.6c0.3-0.3,0.7-0.6,1.1-0.8c0.1,0,0.1,0,0.1-0.1
	C62.9,2.2,70.2,0,77.5,0c2.7,0,5.4,0.3,8.1,0.9c6.9,1.6,13.2,5.3,18.1,10.5c4.6,4.9,7.7,11,9,17.6c0.7,0.1,1.5,0.3,2.2,0.5
	c0.8,0.2,1.6,0.4,2.4,0.7c0.7,0.2,1.5,0.5,2.2,0.7c1.5,0.3,3,0.8,4.5,1.3c0.4,0.2,0.9,0.4,1.3,0.5c0.1,0,0.1,0,0.2,0.1
	c0.3,0.1,0.6,0.3,0.9,0.4l2.1,0.9c-0.1,0-0.2-0.1-0.3-0.1l2.1,0.9c0.7,0.3,1.4,0.6,2,0.9c0.9,0.3,1.8,0.6,2.6,1
	c0.9,0.3,1.7,0.7,2.5,1.2c0.6,0.4,1.3,0.8,2,1.1c0.7,0.3,1.4,0.7,2,1s1.4,0.7,2.1,1c0.4,0.2,0.7,0.4,1.1,0.6
	c0.4,0.3,0.8,0.6,1.1,0.9l1.8,1.5c0.6,0.5,1.1,1,1.7,1.5c0.6,0.6,1.2,1.2,1.7,1.9c0.2,0.3,0.5,0.6,0.7,0.9s0.4,0.7,0.6,1
	c0.4,0.6,0.7,1.2,0.9,1.8c0.3,0.7,0.3,1.5,0.2,2.2c-0.1,0.6-0.4,1.2-0.9,1.7c-0.3,0.3-0.6,0.6-1,0.8c-0.3,0.2-0.6,0.3-0.9,0.5
	c-0.7,0.3-1.5,0.6-2.3,0.8c-0.7,0.2-1.4,0.4-2.1,0.5c-1.5,0.4-3,0.7-4.5,1s-3.3,0.6-4.9,0.8h0.1c-0.9,0.1-1.7,0.2-2.6,0.4
	c-0.9,0.1-1.9,0.2-2.8,0.2h-5.5c-1.5,0-3.1-0.1-4.6-0.2c-0.8-0.1-1.6-0.1-2.4-0.2c-0.7,0-1.5,0-2.2-0.1c-1.6,0-3.2,0-4.8-0.1
	s-3.1-0.1-4.6-0.1c-0.8,0-1.5,0-2.3-0.1h-0.6c-2.8,3.2-6.1,5.9-9.8,8c-3.2,1.8-6.6,3.1-10.2,3.8c-3.6,0.7-7.2,0.9-10.8,0.5
	c-1.8-0.2-3.6-0.5-5.3-0.9c-1.8-0.5-3.5-1.1-5.2-1.8c-3.3-1.4-6.3-3.3-9-5.6C49,59,45.2,53.2,43.1,46.8L43.1,46.8z M45.9,47.7
	c0.2,0.4,0.3,0.9,0.5,1.3c0-0.1,0-0.1-0.1-0.2c0,0.1,0.1,0.1,0.1,0.2v0.1l0,0c1.1,2.6,2.6,5.1,4.3,7.4c1.8,2.3,3.9,4.4,6.2,6.2
	c2.3,1.7,4.7,3.2,7.3,4.3h0.1c2.8,1.1,5.6,1.9,8.6,2.3c3,0.4,6,0.4,9,0c3-0.4,5.9-1.2,8.7-2.4c-0.1,0-0.2,0.1-0.3,0.1
	c2.7-1.1,5.3-2.6,7.6-4.4H98l0.1-0.1H98c1.3-1,2.5-2.1,3.6-3.3c-1.2,0-2.3-0.1-3.5-0.2c-0.8-0.1-1.6-0.3-2.5-0.5
	c-0.7-0.2-1.5-0.3-2.2-0.4l-2.2-0.3c-0.8-0.1-1.6-0.3-2.3-0.4h0.3l-6.5-0.9c-1-0.2-2-0.3-3.1-0.5s-2-0.3-2.9-0.4
	c-1.5-0.2-3-0.5-4.5-0.9l-4.8-1.2c-0.7-0.2-1.4-0.3-2.2-0.5l-2.4-0.6c-0.7-0.2-1.5-0.4-2.2-0.7c-0.8-0.3-1.6-0.6-2.5-0.8
	c-1.5-0.5-3.1-0.8-4.6-1.2l-2.2-0.6l-2.4-0.6C48,48.3,46.9,48,45.9,47.7L45.9,47.7z M44.6,21.4c0.7-1.6,1.5-3.1,2.4-4.6
	c-0.8,0-1.6,0-2.4-0.1c-1.6-0.1-3.2-0.1-4.8-0.1s-3.1,0-4.7-0.1s-3.2-0.1-4.8-0.1s-3.1-0.1-4.7,0s-3.3,0.2-4.9,0.2s-3,0.1-4.5,0.2
	s-3.2,0.3-4.8,0.4c-1.4,0.1-2.7,0.3-4.1,0.4c-1.2,0.2-2.4,0.5-3.5,0.9c-0.4,0.2-0.7,0.4-1.1,0.6l-0.3,0.3c-0.1,0.1-0.1,0.2-0.2,0.3
	s-0.1,0.2-0.1,0.4v0.2c0.1,0.4,0.2,0.7,0.3,1.1c0.2,0.4,0.4,0.8,0.7,1.2c0.8,0.9,1.7,1.8,2.7,2.6l2.6,2l-0.1-0.1l0.1,0.1l0,0
	c0.9,0.7,1.8,1.3,2.7,2l3,2.1c1.3,0.9,2.7,1.7,4,2.5s2.7,1.6,4.1,2.3s2.9,1.6,4.4,2.3c1.3,0.6,2.7,1.2,4.1,1.8
	c0.6,0.2,1.1,0.5,1.7,0.7c0.7,0.3,1.4,0.5,2.2,0.7c0.8,0.2,1.6,0.5,2.5,0.8c1.5,0.5,3,1.1,4.5,1.6s3.1,1,4.7,1.5s3.1,0.9,4.6,1.3
	s3.1,0.9,4.6,1.3c0.7,0.2,1.4,0.3,2.1,0.5s1.7,0.5,2.5,0.7c1.5,0.5,3,1,4.6,1.4c1.6,0.4,3.1,0.7,4.7,1.1l2.4,0.6
	c0.7,0.2,1.4,0.4,2.2,0.6c1.5,0.3,3.1,0.6,4.6,0.8l2.4,0.3c0.8,0.1,1.6,0.3,2.4,0.4c1.5,0.2,3.1,0.5,4.6,0.7
	c0.9,0.1,1.8,0.2,2.7,0.4c0.8,0.1,1.7,0.3,2.6,0.4s1.7,0.2,2.6,0.4c0.8,0.2,1.7,0.4,2.5,0.5c1.5,0.2,3,0.2,4.4,0.3
	c0.8,0,1.5,0.1,2.3,0.1s1.5,0.1,2.2,0.1c1.6,0,3.2,0.1,4.7,0.1s3,0,4.5,0.1c0.8,0,1.5,0,2.3,0.1c0.8,0,1.5,0.1,2.3,0.2
	c1.6,0.1,3.2,0.2,4.8,0.2s3.2,0.1,4.8,0c0.8,0,1.6,0,2.4-0.1c0.7,0,1.4-0.1,2.1-0.2l0,0l2.4-0.3h-0.3c2.1-0.3,4.3-0.7,6.4-1.2
	c1-0.2,2-0.5,3-0.7c0.9-0.2,1.8-0.4,2.6-0.8c0.4-0.2,0.8-0.4,1.2-0.7l0.4-0.4l0.1-0.1c0-0.1,0-0.2,0.1-0.3v-0.4
	c-0.1-0.3-0.2-0.6-0.3-0.9c-0.3-0.6-0.7-1.2-1-1.8c-0.2-0.4-0.5-0.7-0.7-1.1c-0.4-0.5-0.8-0.9-1.2-1.3c-0.4-0.4-0.8-0.8-1.3-1.1
	c-0.9-0.7-1.7-1.5-2.6-2.3c-0.4-0.3-0.7-0.5-1.1-0.7c-0.4-0.2-0.9-0.5-1.3-0.7c-0.8-0.4-1.6-0.7-2.4-1.1s-1.7-0.8-2.5-1.3
	c-0.7-0.4-1.4-0.8-2.2-1.1c-0.8-0.3-1.7-0.6-2.5-0.9c-0.9-0.3-1.7-0.7-2.5-1.1c-0.6-0.3-1.3-0.5-1.9-0.8c-0.7-0.3-1.4-0.6-2.1-1
	c-0.4-0.1-0.7-0.3-1.1-0.5l0,0c-0.3-0.1-0.6-0.3-0.9-0.4c-1.5-0.5-3-1-4.5-1.3c-1.5-0.4-3-1-4.5-1.4l-1.4-0.3
	c0.2,1.4,0.3,2.8,0.3,4.2v1.2c1.5,0.4,2.9,0.8,4.4,1.3c1.2,0.3,2.4,0.8,3.5,1.3c0.6,0.3,1.2,0.6,1.8,0.9c0.5,0.3,1,0.6,1.6,0.9
	c1.1,0.6,2.2,1.3,3.2,2.1c0.5,0.4,0.9,0.9,1.3,1.4c0.2,0.3,0.4,0.6,0.5,0.9c0.2,0.4,0.2,0.9,0,1.3c-0.1,0.4-0.3,0.7-0.5,1
	c-0.2,0.2-0.3,0.5-0.5,0.6s-0.3,0.3-0.5,0.4c-0.2,0.2-0.4,0.3-0.7,0.4c-0.5,0.3-1.1,0.6-1.7,0.9c-1.1,0.4-2.2,0.8-3.3,1
	c-1.2,0.2-2.5,0.4-3.7,0.4h-3.6c-2.4,0-4.8,0-7.3-0.1s-4.9-0.4-7.4-0.6c-1.3-0.1-2.7-0.2-4-0.4s-2.4-0.5-3.6-0.7l-3.6-0.6
	c-1.2-0.2-2.4-0.4-3.6-0.5c-0.3,0-0.5-0.1-0.8-0.1h-0.4c-2.4-0.3-4.8-0.7-7.2-1.3c-1.3-0.3-2.6-0.6-3.8-0.9l-3.6-0.9
	c-1.2-0.3-2.4-0.7-3.6-1.1c-1.1-0.4-2.2-0.8-3.4-1.1c-1.2-0.4-2.3-0.8-3.5-1.2l-3.6-1.2c-1.2-0.4-2.3-0.8-3.5-1.2s-2.4-0.9-3.6-1.3
	s-2.3-0.8-3.5-1.2s-2.4-0.8-3.6-1.3c-2.3-1-4.7-1.8-7-3c-1.1-0.6-2.2-1.2-3.3-1.9c-0.5-0.4-1-0.8-1.5-1.3L29,29.3
	c-0.3-0.3-0.5-0.7-0.7-1.1c-0.2-0.4-0.3-0.8-0.3-1.3c0-0.4,0-0.8,0.2-1.2c0.1-0.3,0.3-0.7,0.6-0.9c0.2-0.3,0.5-0.5,0.8-0.7
	c0.5-0.3,1-0.6,1.5-0.8c0.6-0.2,1.2-0.4,1.8-0.6l1.7-0.3l2-0.3c0.6-0.1,1.2-0.1,1.9-0.2c1.1-0.1,2.3-0.2,3.4-0.2h1.8
	C43.7,21.4,44.1,21.4,44.6,21.4L44.6,21.4z M43.6,23.7h-1.4c-1,0-2,0.1-3,0.2s-1.9,0.1-2.9,0.2c-0.8,0.1-1.5,0.2-2.3,0.4
	c-0.7,0.1-1.3,0.3-2,0.5c-0.5,0.2-1,0.5-1.5,0.8l-0.4,0.4v0.3c0,0.1,0.1,0.2,0.1,0.3s0.2,0.3,0.3,0.5c0.5,0.6,1.1,1.1,1.8,1.6
	c0.5,0.4,1,0.7,1.5,1c0.5,0.3,1,0.6,1.5,0.8c1,0.5,2,1,3,1.4l0,0c1.1,0.4,2.1,0.9,3.2,1.3c0.2-3.3,0.9-6.5,2-9.6
	C43.6,23.8,43.6,23.8,43.6,23.7z M43.8,34.3c0.5,0.2,1,0.3,1.5,0.5l3.6,1.2c1.2,0.5,2.4,0.9,3.6,1.4l3.6,1.2
	c1.2,0.4,2.3,0.7,3.5,1.1s2.3,0.8,3.5,1.2c2.4,0.8,4.7,1.7,7.2,2.3c1.1,0.3,2.3,0.6,3.5,0.9s2.6,0.5,3.9,0.9c2.4,0.6,4.9,1,7.3,1.4
	h-0.2c0.4,0.1,0.8,0.1,1.2,0.2h-0.3l6.4,0.9c1.9,0.3,3.9,0.8,5.8,1.1c1.4,0.2,2.9,0.3,4.3,0.4s3,0.3,4.5,0.4c0.5,0,1,0.1,1.5,0.1
	c0-0.1,0-0.1,0.1-0.2c1.1-2.7,1.9-5.6,2.3-8.5v0.1c0.4-3,0.4-6.1,0-9.1c-0.4-3-1.2-5.9-2.4-8.7l0,0c-2.3-5.3-5.9-9.9-10.4-13.5
	c-2.3-1.8-4.8-3.2-7.5-4.4c0.1,0,0.2,0.1,0.3,0.1c-2.8-1.2-5.8-2-8.8-2.4c-3-0.4-6-0.4-9,0c-2.9,0.4-5.8,1.2-8.5,2.3
	c-2.5,1.1-4.9,2.5-7.2,4.1c-0.1,0.1-0.2,0.2-0.3,0.2l0,0c-2.3,1.8-4.3,3.8-6.1,6.1l0.1-0.1l-0.1,0.1l0,0l-0.1,0.1l0.1-0.1
	c-1.7,2.3-3.2,4.8-4.3,7.4c0-0.1,0.1-0.2,0.1-0.3c-1.2,2.7-2,5.6-2.4,8.5l0,0C44,32.3,43.9,33.3,43.8,34.3z M110.7,49.4h6.8
	c1.1,0,2.2,0,3.3-0.1c1.4-0.2,2.7-0.6,4-1.1c0.7-0.3,1.3-0.7,1.9-1.1l0.3-0.3c0.1-0.1,0.2-0.2,0.2-0.4v-0.1l0,0
	c-0.1-0.1-0.2-0.2-0.2-0.4c-0.3-0.4-0.7-0.8-1.1-1.1c-0.4-0.3-0.9-0.6-1.3-0.9s-1-0.5-1.4-0.8s-1.1-0.6-1.6-0.9
	c-0.5-0.3-1-0.5-1.5-0.7c-0.4-0.2-0.9-0.4-1.4-0.5c-0.5-0.2-1.1-0.4-1.6-0.6l-3-0.9l-0.9-0.3c-0.1,0.7-0.1,1.3-0.2,2
	C112.5,44,111.7,46.7,110.7,49.4z M23.7,21.3L23.7,21.3z M22.9,19.1c0.3-0.1,0.6-0.2,0.9-0.2c0.3,0,0.5,0,0.8,0.1
	c0.6,0.2,1,0.8,0.8,1.4c-0.2,0.6-0.8,1-1.4,0.8l0,0h-0.2c-0.1,0-0.2,0.1-0.3,0.1c-0.5,0.2-1,0.5-1.4,0.8c-0.2,0.1-0.3,0.3-0.5,0.5
	s-0.3,0.5-0.5,0.8c-0.2,0.5-0.3,1-0.4,1.5v1.2c0.1,0.3,0.1,0.6,0.2,0.9c0.3,0.6,0.6,1.1,1,1.6c0.3,0.5,0.7,0.9,1.1,1.3
	c0.5,0.5,0.5,1.2,0,1.7s-1.2,0.5-1.7,0c-0.7-0.8-1.3-1.6-1.9-2.4c-0.3-0.3-0.5-0.7-0.6-1.1c-0.2-0.3-0.3-0.7-0.4-1.1
	c-0.1-0.5-0.1-0.9-0.1-1.4c0-0.6,0.1-1.3,0.3-1.9c0.1-0.3,0.2-0.5,0.3-0.8c0.2-0.5,0.5-1,0.8-1.5c0.4-0.6,0.9-1.1,1.5-1.4
	c0.2-0.1,0.3-0.2,0.5-0.3L22.9,19.1z M137.2,48.2c0.1-0.5,0.6-0.9,1.1-0.9h0.3c0.6,0.2,1,0.8,0.8,1.4c0,0,0,0,0,0
	c-0.1,0.4-0.3,0.9-0.5,1.3c-0.3,0.5-0.6,1-0.9,1.4c-0.5,0.5-1,0.9-1.6,1.3c-0.6,0.4-1.2,0.7-1.8,1.1c-0.6,0.3-1.2,0.1-1.6-0.4
	c-0.3-0.6-0.1-1.2,0.4-1.6c0.7-0.3,1.4-0.7,2-1.2c0.3-0.3,0.6-0.5,0.9-0.8c0.3-0.4,0.5-0.8,0.7-1.2
	C137.1,48.4,137.2,48.3,137.2,48.2z"/>
</svg>
